# xmcd
#
# Track frame offsets: 
#        150
#        10425
#        21227
#        32598
#        44955
#        53303
#        60816
#        70884
#        82593
#        92614
#
# Disc length: 1401 seconds
#
# Revision: 0
# Processed by: cddbd v1.5.2PL0 Copyright (c) Steve Scherf et al.
# Submitted via: ExactAudioCopy v0.95b4
#
DISCID=6e05770a
DTITLE=Various Artist - Stars and Hits of the Steel Guitar
DYEAR=1976
DGENRE=Classic Country
TTITLE0=Pete Drake - Y'All Come
TTITLE1=Little Roy Wiggins - South Seas
TTITLE2=Shot Jackson and Buddy Emmons - Honky Tonk Angels
TTITLE3=Tommy Hill's Band - Night Walk
TTITLE4=Jimmy Day - Ranchers Stomp
TTITLE5=Little Roy Wiggins - Rise and Shine
TTITLE6=Leon McAuliffe - Columbus Stockade
TTITLE7=Pete Drake - Abilene
TTITLE8=Walter Haynes - Gear Shiftin'
TTITLE9=Leon McAuliffe - Orange Blossom
EXTD=
EXTT0=
EXTT1=
EXTT2=
EXTT3=
EXTT4=
EXTT5=
EXTT6=
EXTT7=
EXTT8=
EXTT9=
PLAYORDER=
